HIERARCHY
ROOT base
{
	OFFSET 0.0 0.0 0.0
	CHANNELS 6 Xposition Yposition Zposition Zrotation Yrotation Xrotation
	JOINT root
	{
		OFFSET 0 0 0
		CHANNELS 6 Xposition Yposition Zposition Zrotation Yrotation Xrotation
		JOINT chest
		{
			OFFSET 0 4.72302 0
			CHANNELS 3 Zrotation Yrotation Xrotation
			JOINT neck
			{
				OFFSET 0 4.47788 0
				CHANNELS 3 Zrotation Yrotation Xrotation
				End Site
				{
					OFFSET 0.0 0.0 0.0
				}
			}
			JOINT right_shoulder
			{
				OFFSET -0.481 4.87 3.6622
				CHANNELS 3 Zrotation Yrotation Xrotation
				JOINT right_elbow
				{
					OFFSET 0 -5.49576 0
					CHANNELS 3 Zrotation Yrotation Xrotation
					JOINT right_wrist
					{
						OFFSET 0 -5.17894 0
						CHANNELS 3 Zrotation Yrotation Xrotation
						End Site
						{
							OFFSET 0.0 0.0 0.0
						}
					}
				}
			}
			JOINT left_shoulder
			{
				OFFSET -0.481 4.87 -3.6622
				CHANNELS 3 Zrotation Yrotation Xrotation
				JOINT left_elbow
				{
					OFFSET 0 -5.49576 0
					CHANNELS 3 Zrotation Yrotation Xrotation
					JOINT left_wrist
					{
						OFFSET 0 -5.17894 0
						CHANNELS 3 Zrotation Yrotation Xrotation
						End Site
						{
							OFFSET 0.0 0.0 0.0
						}
					}
				}
			}
		}
		JOINT right_hip
		{
			OFFSET 0 0 1.69774
			CHANNELS 3 Zrotation Yrotation Xrotation
			JOINT right_knee
			{
				OFFSET 0 -8.43092 0
				CHANNELS 3 Zrotation Yrotation Xrotation
				JOINT right_ankle
				{
					OFFSET 0 -8.1974 0
					CHANNELS 3 Zrotation Yrotation Xrotation
					End Site
					{
						OFFSET 0.0 0.0 0.0
					}
				}
			}
		}
		JOINT left_hip
		{
			OFFSET 0 0 -1.69774
			CHANNELS 3 Zrotation Yrotation Xrotation
			JOINT left_knee
			{
				OFFSET 0 -8.43092 0
				CHANNELS 3 Zrotation Yrotation Xrotation
				JOINT left_ankle
				{
					OFFSET 0 -8.1974 0
					CHANNELS 3 Zrotation Yrotation Xrotation
					End Site
					{
						OFFSET 0.0 0.0 0.0
					}
				}
			}
		}
	}
	JOINT red_arrow
	{
		OFFSET 0 0 0
		CHANNELS 3 Zrotation Yrotation Xrotation
		End Site
		{
			OFFSET 0.0 0.0 0.0
		}
	}
	JOINT blue_arrow
	{
		OFFSET 0 0 0
		CHANNELS 3 Zrotation Yrotation Xrotation
		End Site
		{
			OFFSET 0.0 0.0 0.0
		}
	}
}
MOTION
Frames: 14
Frame Time: 0.0333333333333333
0 18.08466 0 0 0 0 0 0 0 0 -90 0 0 0 0 0 0 0 0 0 -90 0 0 0 0 0 0 0 0 90 0 0 0 0 0 0 0 0 0 0 0 0 0 0 0 0 0 0 0 0 0 0 0 0 0 0 0 0 0 0
0.823082688450813 0 0.0887730527669191 0 0.60718607770327 0 0 16.977733361721 0 -5.69493388325895 4.41053481218574E-16 0.323959878855169 -0.441692794498588 -5.51011290079553 0.969264655271799 0.320105771906932 0.354095104496939 -0.00255639672888317 -14.4710745426887 12.0126085730893 -8.25835830420541 10.198269001641 0 0 0 0 0 7.82397970613309 -16.7927298929567 19.2057214171888 32.627615589665 0 0 0 0 0 26.8191126113759 -6.21035579808225 2.8668754876407 -13.5652363662082 0 0 -4.99119112030408 1.86253219632002 -5.17283555463821 -7.03456562833765 9.29268112049457 -0.38638948801396 -29.1365249048585 0 0 9.19305553667846 -8.15801604839815 10.7335721344788 0 0 0 0 0 0
1.53899057656527 0 0.235409259051085 0 0.579775363466287 0 0 17.0062828540802 0 -6.12060646744567 -0.517834976183088 -1.93437317694975 -0.103466918119484 -5.1016940292675 1.28633674466213 0.230100054070077 0.651824170096933 -0.279512220538729 -13.0488342817753 14.1040388184763 -8.0006011778477 11.1290521770108 0 0 0 0 0 6.25538224923988 -15.0366226505642 17.9060167756604 31.4478131086666 0 0 0 0 0 25.1167597931866 -4.92208511615198 5.84986393966757 -14.247143669922 0 0 -4.8989097543423 -0.129531019775792 -5.16070113222032 -2.90020914557733 9.37401108800429 3.48313384216716 -36.1217320482738 0 0 3.51332137423678 -8.6511160005701 10.6820391164782 0 0 0 0 0 0
2.27044675499201 0 0.282814179360867 0 0.564272058233691 0 0 17.1017488002777 0 -5.91358628156431 -0.292995285679019 -3.28093301397013 0.820460876919911 -5.5062966196082 1.37645540979841 0.230124634556418 -0.103825226563421 -0.98737144599119 -11.9638994399564 16.1805750626045 -8.01428519179156 12.0032344285024 0 0 0 0 0 4.2616375062695 -12.732801131942 16.3701459484172 29.365821185485 0 0 0 0 0 22.4682830247157 -4.63168228935006 7.31143999576031 -14.6397642877555 0 0 -2.08056266530465 -0.871284204698362 -5.03654340481698 1.32217460891056 8.67118464298002 5.96471983171488 -44.4022060206066 0 0 -1.69110587410337 -9.00432734061478 9.4735225644489 0 0 0 0 0 0
2.97639984041452 0 0.273222631961107 0 0.588084604031006 0 0 17.1801251769066 0 -5.57692688629231 0.450296894041991 -4.15544706297845 1.86031899433602 -5.5704849683858 1.41597449976084 0.772969441782531 -0.798370085962859 -1.19130134062492 -10.6633465259374 18.1657511856821 -8.16141229004358 12.6223253361933 0 0 0 0 0 2.51721530232324 -9.952131088702 14.9194201316487 27.1191568165089 0 0 0 0 0 19.838963064632 -4.29600892282681 8.04181151587455 -15.0586273461538 0 0 0.685822281133934 -1.87664969410891 -4.76401408217724 6.30164532323888 7.34633322632918 8.02914992538314 -54.5067229919264 0 0 -5.95520779099193 -9.02160410755471 7.5049692517895 0 0 0 0 0 0
3.65469432026148 0 0.221705245226622 0 0.666449444040438 0 0 17.2432524800301 0 -5.16035147747563 1.482899836868 -4.73775251583839 2.66422607183077 -5.47516768520134 1.52507133671687 1.21485855827478 -1.41592498309996 -1.33931612174704 -9.18016621412807 20.1040277815373 -8.68110829777638 13.3403771472212 0 0 0 0 0 0.777274214991885 -6.95432785936922 13.805328157632 24.6269932506478 0 0 0 0 0 16.9482633784402 -4.62973071221997 8.29160730439596 -15.0995555472078 0 0 3.18099025648331 -2.35613923979609 -4.48451549438722 11.3462998021979 5.36847029662784 9.80934123215338 -65.1043044892402 0 0 -10.4162804015873 -8.35279053244125 5.67796192213225 0 0 0 0 0 0
4.30740493237972 0 0.13007096350193 0 0.799459431127282 0 0 17.2967080593109 0 -4.71791614787547 2.51863796410286 -5.0072652925459 3.10521356379381 -5.12497170887442 1.581232833432 1.63273919158175 -2.01394915959042 -1.34759345449355 -7.64230873243884 21.7461548840202 -9.41152523040854 14.4163266018896 0 0 0 0 0 -0.838485603528102 -4.24945576816384 12.958336813328 21.7722490926966 0 0 0 0 0 13.829497424049 -4.98563927390722 8.20323227697108 -14.5552338665874 0 0 5.28120407162277 -2.7284285841632 -4.11846093656432 16.2534446361825 3.17363865242234 11.149382455848 -74.9410882903792 0 0 -15.415748772305 -7.0763726289576 3.79124697367683 0 0 0 0 0 0
4.93635084182024 0 -0.000680602341890327 0 0.972192987890428 0 0 17.3454957842827 0 -4.32335736148617 3.27261910193665 -4.87133192595451 3.16825187188976 -4.5404487192269 1.30978705517638 1.98769573340171 -2.57572654090376 -1.34515822362226 -6.09798960206505 23.1653531160957 -10.3365313254393 16.0605853615434 0 0 0 0 0 -2.41284299589487 -1.90609608918175 12.3863341705512 18.8504085714337 0 0 0 0 0 10.5595479435457 -5.1727652166049 7.73328754689329 -13.3389829348569 0 0 6.91940655908253 -2.93317472106493 -3.65523876115202 21.0231319071382 1.47312874478996 11.8586298778305 -82.4986516258633 0 0 -18.2272323985642 -5.06489093219904 2.87764568040892 0 0 0 0 0 0
5.55205831080675 0 -0.163051967322826 0 1.17256515339 0 0 17.3906403422356 0 -3.9809776673978 3.79791218661886 -4.3305028732266 2.90940568873792 -3.85495736909311 0.537037225514655 2.27586770220197 -3.02698494617259 -1.42737798921874 -4.38895984224958 24.4688150375624 -11.4375625482012 18.4245155408321 0 0 0 0 0 -4.0213286940497 0.25294105660414 12.1488189489872 16.2044428058422 0 0 0 0 0 7.02948166957634 -5.47736773508738 6.84748947292159 -11.3404234799343 0 0 8.08101721911346 -2.78741790916404 -3.09185332006029 25.7613933951746 0.674893170316257 11.9327519885267 -86.409836510666 0 0 -17.3269706814684 -2.43838812782536 2.92559503726349 0 0 0 0 0 0
6.15587911754847 0 -0.356468336284161 0 1.38727796097765 0 0 17.4207808256149 0 -3.80160237335318 4.07059698429309 -3.48162539874514 2.60225889182708 -2.86629925226752 -0.425257509834749 2.44908842238648 -3.25805587051842 -1.6640833718463 -2.32641058668999 25.783365697358 -12.7751426633056 21.4077680004699 0 0 0 0 0 -5.77817112383729 2.5272600670046 12.1829188303777 13.9429483886308 0 0 0 0 0 3.5254958034719 -6.23431190266131 5.58423429594964 -8.95154859602304 0 0 8.96792775249078 -2.04211772008474 -2.36998535192417 30.7968742415917 1.06701252505487 11.6608483393167 -85.9006663986091 0 0 -13.282562440038 0.39846552442911 3.77880603940553 0 0 0 0 0 0
6.75574899837375 0 -0.555746071785688 0 1.61685451259197 0 0 17.4208075046539 0 -3.73381098825743 4.35273125603048 -2.6475514935421 2.15372156790984 -1.63082744159499 -1.33912911423028 2.53976140309664 -3.02866790878972 -1.79583780343062 0.274328923256439 27.3002435487139 -14.3173043932332 24.8790340612104 0 0 0 0 0 -7.62534238614878 5.19406584195895 12.6384063677618 12.03732390265 0 0 0 0 0 0.0176073011626 -7.49330102335954 4.36979593768326 -6.31113193224539 0 0 9.71565742478788 -0.987524606555733 -1.53949565868099 36.0540759746835 2.43251328297725 11.5620880494345 -80.7740356906242 0 0 -6.85690065657709 3.36266225678746 5.36168877128664 0 0 0 0 0 0
7.35287331044674 0 -0.748996035754681 0 1.86555682479304 0 0 17.3809944391251 0 -3.95089001855448 4.71416470294405 -2.05004809975823 1.7224079028704 -0.300268261092736 -2.10524875901331 2.60505870052348 -2.31244024626497 -1.8276602919328 3.16017462368819 29.081561949053 -16.2078250669593 28.6285722740211 0 0 0 0 0 -9.58099779556719 8.1301818104032 13.4398837092272 10.3654199523305 0 0 0 0 0 -3.30265900074221 -9.1656184372431 3.50100018266012 -3.51462132682745 0 0 10.3956694156514 0.212965719204872 -0.624961460079691 41.0098940864788 4.68103224035618 11.5810952799005 -71.119112506326 0 0 0.487499204029401 5.84616029148317 6.47453146281514 0 0 0 0 0 0
7.94180511534214 0 -0.934763439744711 0 2.12876022231651 0 0 17.2974743008614 0 -4.56124867244615 4.98510621193078 -1.80406926122621 1.03868736001277 1.01720317183967 -2.71464603099562 2.66466174390272 -1.23566079602255 -1.84713350109485 6.04007529065061 30.9753077557938 -18.4975450251375 32.3889653649701 0 0 0 0 0 -11.5493856126109 10.5952362319557 14.3757898610259 8.97235079091396 0 0 0 0 0 -6.07558396813171 -10.989783648127 3.06286930509124 -1.06069902963389 0 0 11.2348268243674 1.51338659539445 0.377010651546929 44.6533577936284 7.45496651056604 11.3149367790007 -57.7562981876813 0 0 5.65281480822621 7.49458769145313 7.16296353540176 0 0 0 0 0 0
8.53561296761036 0 -1.11320732906461 0 2.39005696994514 0 0 17.1722176790237 0 -5.54548657542356 4.94151799318741 -1.93597415802587 0.0279807902615245 2.08685464922289 -3.35678091036079 2.54461831807782 -0.0359514788073315 -1.94130381761541 8.41880852882167 32.5769289119565 -20.760790029967 35.6642118267205 0 0 0 0 0 -13.4452961763865 12.0121218550616 14.9844981429037 7.89559110505531 0 0 0 0 0 -7.82040140920957 -12.3484701694887 2.91453601243976 0.00230909440074108 0 0 12.7901643357823 2.57874203709066 1.40646018441967 46.2928319055939 10.053879472967 10.6064256976884 -43.1500171947845 0 0 6.65982664667233 8.06557199734254 6.97858083236801 0 0 0 0 0 0
